<?xml version="1.0" standalone="no"?>
<!DOCTYPE svg PUBLIC "-//W3C//DTD SVG 20010904//EN"
 "http://www.w3.org/TR/2001/REC-SVG-20010904/DTD/svg10.dtd">
<svg version="1.0" xmlns="http://www.w3.org/2000/svg"
 width="700.000000pt" height="700.000000pt" viewBox="0 0 700.000000 700.000000"
 preserveAspectRatio="xMidYMid meet">
<metadata>
Created by potrace 1.14, written by Peter Selinger 2001-2017
</metadata>
<g transform="translate(0.000000,700.000000) scale(0.100000,-0.100000)"
fill="#000000" stroke="none">
<path d="M3278 6996 c-1 -2 -42 -6 -89 -10 -47 -4 -95 -8 -105 -10 -10 -2 -48
-7 -84 -12 -36 -4 -67 -8 -70 -9 -3 -1 -25 -5 -50 -9 -25 -4 -101 -21 -170
-38 -69 -16 -134 -31 -146 -34 -39 -7 -228 -72 -344 -117 -125 -48 -307 -134
-435 -205 -73 -41 -333 -208 -345 -221 -3 -3 -43 -35 -90 -71 -90 -69 -111
-86 -198 -165 -352 -320 -662 -745 -837 -1145 -25 -58 -50 -114 -55 -125 -45
-93 -150 -427 -176 -560 -2 -11 -10 -54 -19 -95 -29 -147 -35 -193 -52 -370
-15 -163 -8 -592 12 -711 2 -13 6 -46 9 -74 21 -182 109 -547 165 -680 5 -11
25 -65 46 -120 63 -166 249 -531 312 -610 4 -6 34 -49 65 -95 170 -255 433
-535 708 -755 92 -74 370 -265 386 -265 4 0 15 -6 23 -14 26 -22 298 -158 408
-204 284 -117 581 -199 862 -238 25 -3 57 -8 71 -10 124 -19 557 -26 725 -11
886 80 1723 499 2305 1156 36 41 70 79 75 85 25 26 146 188 197 261 298 430
524 1010 583 1500 4 28 8 61 11 75 19 113 26 541 11 715 -7 81 -23 206 -31
252 -2 10 -11 59 -21 108 -114 613 -417 1219 -841 1684 -85 93 -258 261 -334
322 -36 30 -67 56 -70 60 -13 16 -230 171 -299 214 -300 187 -574 312 -891
408 -129 40 -297 79 -390 93 -19 3 -60 9 -91 15 -31 5 -81 12 -110 15 -30 3
-67 8 -84 10 -34 6 -541 14 -547 10z m457 -830 c102 -10 218 -27 330 -50 479
-98 963 -363 1326 -725 385 -385 630 -850 739 -1402 21 -108 23 -126 36 -279
13 -151 7 -448 -11 -541 -2 -12 -7 -47 -11 -78 -3 -31 -8 -59 -10 -62 -2 -4
-6 -24 -10 -45 -10 -69 -55 -236 -91 -344 -201 -593 -611 -1103 -1142 -1424
-238 -144 -490 -249 -750 -312 -131 -32 -135 -33 -236 -49 -242 -36 -516 -38
-775 -5 -420 54 -924 263 -1245 517 -16 13 -35 27 -40 31 -101 72 -323 292
-433 430 -195 245 -349 528 -447 818 -35 106 -79 267 -90 334 -3 19 -8 42 -10
50 -2 8 -7 39 -10 69 -4 30 -9 63 -11 75 -8 40 -18 232 -18 341 1 255 35 487
108 740 200 687 685 1280 1320 1611 273 142 612 254 849 280 29 3 58 7 66 10
7 2 63 7 125 10 61 4 112 7 114 9 4 3 273 -4 327 -9z"/>
<path d="M3377 5614 c-1 -1 -36 -5 -77 -8 -134 -12 -184 -21 -322 -56 -587
-148 -1098 -557 -1366 -1095 -65 -130 -77 -158 -122 -295 -75 -227 -108 -450
-104 -690 3 -169 8 -213 39 -385 45 -244 169 -543 316 -761 295 -438 745 -753
1254 -878 90 -22 118 -28 205 -41 181 -28 476 -24 667 9 665 118 1229 544
1536 1161 141 283 211 591 211 925 0 382 -92 728 -283 1064 -192 338 -530 654
-888 830 -161 80 -384 157 -518 180 -16 3 -41 8 -55 10 -31 6 -77 13 -150 22
-51 6 -337 13 -343 8z m276 -878 c81 -12 102 -17 177 -37 616 -167 1009 -789
895 -1419 -9 -51 -56 -221 -66 -239 -4 -9 -16 -34 -26 -56 -86 -197 -270 -411
-453 -528 -121 -76 -302 -153 -410 -172 -220 -41 -381 -39 -562 6 -284 71
-535 237 -708 468 -88 118 -194 347 -215 466 -2 17 -7 41 -10 55 -13 60 -18
132 -18 236 3 462 271 889 689 1097 130 65 273 108 404 122 36 4 66 8 67 9 5
5 194 -2 236 -8z"/>
</g>
</svg>
