<?xml version="1.0" encoding="UTF-8" standalone="no"?>
<!-- Created with Inkscape (http://www.inkscape.org/) -->

<svg
   width="73.121635mm"
   height="73.122154mm"
   viewBox="0 0 73.121635 73.122154"
   version="1.1"
   id="svg5"
   sodipodi:docname="logo.svg"
   inkscape:version="1.1.1 (3bf5ae0d25, 2021-09-20, custom)"
   inkscape:export-filename="/home/hdert/Pictures/logo.png"
   inkscape:export-xdpi="96"
   inkscape:export-ydpi="96"
   xmlns:inkscape="http://www.inkscape.org/namespaces/inkscape"
   xmlns:sodipodi="http://sodipodi.sourceforge.net/DTD/sodipodi-0.dtd"
   xmlns="http://www.w3.org/2000/svg"
   xmlns:svg="http://www.w3.org/2000/svg">
  <sodipodi:namedview
     id="namedview7"
     pagecolor="#505050"
     bordercolor="#ffffff"
     borderopacity="1"
     inkscape:pageshadow="0"
     inkscape:pageopacity="0"
     inkscape:pagecheckerboard="1"
     inkscape:document-units="mm"
     showgrid="false"
     inkscape:zoom="2.3957066"
     inkscape:cx="110.82325"
     inkscape:cy="170.30466"
     inkscape:window-width="1920"
     inkscape:window-height="1080"
     inkscape:window-x="0"
     inkscape:window-y="0"
     inkscape:window-maximized="1"
     inkscape:current-layer="layer1"
     fit-margin-top="0"
     fit-margin-left="0"
     fit-margin-right="0"
     fit-margin-bottom="0" />
  <defs
     id="defs2" />
  <g
     inkscape:label="Layer 1"
     inkscape:groupmode="layer"
     id="layer1"
     transform="translate(-68.439233,-111.9389)">
    <path
       id="path31"
       style="fill:#0088aa;stroke-width:0.264583"
       d="m 104.99979,111.9389 a 36.561019,36.561019 0 0 0 -36.560557,36.56108 36.561019,36.561019 0 0 0 36.560557,36.56107 36.561019,36.561019 0 0 0 36.56108,-36.56107 36.561019,36.561019 0 0 0 -36.56108,-36.56108 z m 0,8.61085 a 27.950181,27.950181 0 0 1 27.95023,27.95023 27.950181,27.950181 0 0 1 -27.95023,27.95023 27.950181,27.950181 0 0 1 -27.95023,-27.95023 27.950181,27.950181 0 0 1 27.95023,-27.95023 z" />
    <path
       id="path982"
       style="fill:#0088aa;stroke-width:1.18278"
       d="M 138.18359 54.603516 A 83.581072 83.581072 0 0 0 54.601562 138.18359 A 83.581072 83.581072 0 0 0 138.18359 221.76562 A 83.581072 83.581072 0 0 0 221.76367 138.18359 A 83.581072 83.581072 0 0 0 138.18359 54.603516 z M 138.18359 89.027344 A 49.155716 49.155716 0 0 1 187.33789 138.18359 A 49.155716 49.155716 0 0 1 138.18359 187.33984 A 49.155716 49.155716 0 0 1 89.027344 138.18359 A 49.155716 49.155716 0 0 1 138.18359 89.027344 z "
       transform="matrix(0.26458333,0,0,0.26458333,68.439233,111.9389)" />
  </g>
</svg>
